<?xml version="1.0" encoding="utf-8"?>
<!-- Generator: Adobe Illustrator 19.0.0, SVG Export Plug-In . SVG Version: 6.00 Build 0)  -->
<svg version="1.1"
	 id="svg3476" xmlns:dc="http://purl.org/dc/elements/1.1/" xmlns:cc="http://creativecommons.org/ns#" xmlns:rdf="http://www.w3.org/1999/02/22-rdf-syntax-ns#" xmlns:svg="http://www.w3.org/2000/svg" xmlns:sodipodi="http://sodipodi.sourceforge.net/DTD/sodipodi-0.dtd" xmlns:inkscape="http://www.inkscape.org/namespaces/inkscape" sodipodi:docname="CSS3.svg" inkscape:version="0.91 r13725"
	 xmlns="http://www.w3.org/2000/svg" xmlns:xlink="http://www.w3.org/1999/xlink" x="0px" y="0px" viewBox="-142 84.4 290.2 409.6"
	 style="enable-background:new -142 84.4 290.2 409.6;" xml:space="preserve">
<style type="text/css">
	.st0{fill:#264DE4;}
	.st1{fill:#2965F1;}
	.st2{fill:#EBEBEB;}
	.st3{fill:#FFFFFF;}
</style>
<sodipodi:namedview  fit-margin-left="0" fit-margin-top="0" showgrid="false" inkscape:cy="256" inkscape:cx="181.367" inkscape:zoom="0.35" borderopacity="1.0" bordercolor="#666666" pagecolor="#ffffff" id="base" inkscape:window-maximized="1" inkscape:window-y="27" inkscape:window-x="0" inkscape:window-height="704" inkscape:window-width="1366" inkscape:current-layer="layer1" inkscape:document-units="px" inkscape:pageopacity="0.0" fit-margin-right="0" fit-margin-bottom="0" inkscape:pageshadow="2">
	</sodipodi:namedview>
<g id="layer1" transform="translate(-193.633,-276.3622)" inkscape:label="Calque 1" inkscape:groupmode="layer">
	<g id="g3013" transform="translate(119,276.3622)">
		<polygon id="polygon2989" class="st0" points="222.8,164.9 196.4,461.1 77.5,494 -41,461.1 -67.4,164.9 		"/>
		<polygon id="polygon2991" class="st1" points="173.8,442.2 196.3,189.1 77.7,189.1 77.7,468.8 		"/>
		<polygon id="polygon2993" class="st2" points="-6.8,299 -3.6,335.3 77.7,335.3 77.7,299 		"/>
		<polygon id="polygon2995" class="st2" points="77.7,225.4 77.6,225.4 -13.4,225.4 -10.1,261.8 77.7,261.8 		"/>
		<polygon id="polygon2997" class="st2" points="77.7,431.1 77.7,393.3 77.6,393.4 37.1,382.4 34.5,353.5 14.9,353.5 -1.9,353.5 
			3.1,410.5 77.6,431.2 		"/>
		<polygon id="polygon3005" class="st3" points="122.3,335.3 118.1,382.4 77.6,393.4 77.6,431.1 152.1,410.5 152.6,404.4 
			161.2,308.7 162,299 168.6,225.4 77.6,225.4 77.6,261.8 128.8,261.8 125.5,299 77.6,299 77.6,335.3 		"/>
	</g>
</g>
</svg>
