<?xml version="1.0" encoding="utf-8"?>
<!-- Generator: Adobe Illustrator 19.0.0, SVG Export Plug-In . SVG Version: 6.00 Build 0)  -->
<svg version="1.1" id="Layer_1" xmlns="http://www.w3.org/2000/svg" xmlns:xlink="http://www.w3.org/1999/xlink" x="0px" y="0px"
	 viewBox="-239 240 97 97" style="enable-background:new -239 240 97 97;" xml:space="preserve">
<style type="text/css">
	.st0{fill:#FFFFFF;}
	.st1{fill:#F05133;}
</style>
<rect x="-223" y="261.4" transform="matrix(0.7071 0.7071 -0.7071 0.7071 146.7376 218.1244)" class="st0" width="66.1" height="49.7"/>
<g>
	<path class="st1" d="M-146.3,284.4l-40.1-40.1c-2.3-2.3-6.1-2.3-8.4,0l-8.3,8.3l10.6,10.6c2.5-0.8,5.3-0.3,7.2,1.7
		c2,2,2.5,4.8,1.7,7.3l10.2,10.2c2.5-0.8,5.3-0.3,7.3,1.7c2.8,2.8,2.8,7.2,0,10c-2.8,2.8-7.2,2.8-10,0c-2.1-2.1-2.6-5.1-1.5-7.7
		l-9.5-9.5v25c0.7,0.3,1.3,0.8,1.9,1.3c2.8,2.8,2.8,7.2,0,10c-2.8,2.7-7.2,2.7-10,0c-2.8-2.8-2.8-7.2,0-10c0.7-0.7,1.5-1.2,2.3-1.5
		v-25.2c-0.8-0.3-1.6-0.9-2.3-1.5c-2.1-2.1-2.6-5.1-1.5-7.7l-10.4-10.4l-27.5,27.5c-2.3,2.3-2.3,6.1,0,8.4l40.1,40.1
		c2.3,2.3,6.1,2.3,8.4,0l39.9-39.9C-144,290.5-144,286.7-146.3,284.4z"/>
</g>
</svg>
