<?xml version="1.0" encoding="utf-8"?>
<!-- Generator: Adobe Illustrator 19.0.0, SVG Export Plug-In . SVG Version: 6.00 Build 0)  -->
<svg version="1.1" id="Layer_1" xmlns="http://www.w3.org/2000/svg" xmlns:xlink="http://www.w3.org/1999/xlink" x="0px" y="0px"
	 viewBox="0 0 820 820" style="enable-background:new 0 0 820 820;" xml:space="preserve">
<style type="text/css">
	.st0{fill:#007EFD;}
</style>
<path id="XMLID_73_" class="st0" d="M111.5,317.6c0-44.8,0-89.7,0-134.5c0-10.3,4.6-16.5,13.2-18.6c5.3-1.3,9.8,0.7,14.2,3.2
	c44.6,25.6,89.2,51.2,133.8,76.8c13.9,8,27.9,15.6,41.5,23.9c7.9,4.8,15,4.4,22.9-0.1c58.2-33.6,116.6-67,174.9-100.5
	c5.1-2.9,10.2-4.9,16.1-2.7c6.3,2.3,10.2,6.8,11.1,13.5c0.3,2.3,0.3,4.7,0.3,7c0,88.2-0.1,176.3,0.1,264.5c0,10-3.6,16.4-12.3,21.4
	c-29.6,16.6-58.9,33.8-88.4,50.6c-6.4,3.7-10.8,8.5-10.7,16.1c0.1,7.4,4.4,12.1,10.7,15.6c16.1,9,32.2,18.1,48.2,27.4
	c6.7,3.9,13.1,3.9,19.8,0c36-20.8,72.1-41.5,108.3-62.1c6.9-4,10-9.6,10-17.6c-0.1-30.2,0.2-60.3,0.1-90.5c0-9.1,3.4-15.4,11.5-19.8
	c15.8-8.6,31.5-17.4,46.7-26.9c13.9-8.7,27.9,0.8,27.8,15.9c-0.5,56.7-0.3,113.3-0.1,170c0,8.4-3.3,14.1-10.6,18.3
	C636.2,605.1,572,642,507.8,678.9c-7.4,4.3-14.2,4.2-21.6,0c-50.1-28.8-100.2-57.4-150.4-86c-6.9-3.9-10.4-9.4-10.3-17.4
	c0.1-27.7,0.1-55.3-0.1-83c0-3.6,2-4.9,4.4-6.3c39.7-22.8,79.4-45.6,119.1-68.2c3.1-1.8,4.4-3.7,4.4-7.3c0-26.8,0.2-53.7,0.3-80.5
	c0-12.7-9.1-20.6-20.5-18.2c-2.7,0.6-4.9,2-7.2,3.3c-29.6,17-59.2,33.9-88.6,51.2c-8.1,4.7-15.2,4.8-23.3,0.1
	c-29.4-17.3-59.1-34.1-88.6-51.2c-3.9-2.3-7.9-4.4-12.6-3.9c-9,0.8-15.4,7.7-15.5,17.1c-0.1,13.5,0,27,0,40.5c0,37.7,0,75.3,0,113
	c0,16.5-12.7,23.9-27.2,15.7c-16.4-9.3-32.6-18.7-49-28c-6.8-3.8-9.9-9.4-9.9-17.1c0.1-45,0-90,0-135
	C111.2,317.6,111.3,317.6,111.5,317.6z"/>
<path id="XMLID_72_" class="st0" d="M627.8,241.6c0-9.5,0.2-19,0-28.5c-0.2-7.6,3-13,9.4-16.9c15.7-9.3,31.4-18.9,47.1-28.2
	c13.3-7.9,26.7-0.4,26.7,15c0.1,19.3,0,38.7,0,58c0,7.4-3,12.7-9.3,16.5c-15.9,9.4-31.6,19.1-47.6,28.5
	c-13.1,7.7-26.3,0.3-26.4-14.8C627.7,261.3,627.8,251.5,627.8,241.6z"/>
</svg>
