<?xml version="1.0" encoding="utf-8"?>
<!-- Generator: Adobe Illustrator 19.0.0, SVG Export Plug-In . SVG Version: 6.00 Build 0)  -->
<svg version="1.1" id="Layer_1" xmlns="http://www.w3.org/2000/svg" xmlns:xlink="http://www.w3.org/1999/xlink" x="0px" y="0px"
	 viewBox="-242 379 27.5 30.3" style="enable-background:new -242 379 27.5 30.3;" xml:space="preserve">
<style type="text/css">
	.st0{fill:url(#SVGID_1_);}
</style>
<g>
	
		<linearGradient id="SVGID_1_" gradientUnits="userSpaceOnUse" x1="-473.8669" y1="778.1447" x2="-473.8669" y2="779.1447" gradientTransform="matrix(25.2082 0 0 -25.1919 11716.9902 20009.4922)">
		<stop  offset="0" style="stop-color:#0052CC"/>
		<stop  offset="1" style="stop-color:#2684FF"/>
	</linearGradient>
	<path class="st0" d="M-218.7,381.3h-19.2c-1.7,0-3,1.3-3,3v19.2c0,0.8,0.3,1.6,0.9,2.1c0.6,0.6,1.3,0.9,2.1,0.9h19.2
		c0.8,0,1.6-0.3,2.1-0.9c0.6-0.6,0.9-1.3,0.9-2.1v-19.2C-215.7,382.7-217.1,381.3-218.7,381.3z M-230.1,399.5c0,0.3-0.1,0.5-0.3,0.7
		c-0.2,0.2-0.4,0.3-0.7,0.3h-4.2c-0.5,0-1-0.4-1-1V387c0-0.5,0.4-1,1-1h4.2c0.5,0,1,0.4,1,1L-230.1,399.5z M-220.4,393.7
		c0,0.3-0.1,0.5-0.3,0.7c-0.2,0.2-0.4,0.3-0.7,0.3h-4.2c-0.5,0-1-0.4-1-1V387c0-0.5,0.4-1,1-1h4.2c0.5,0,1,0.4,1,1L-220.4,393.7z"/>
</g>
</svg>
