<?xml version="1.0" encoding="utf-8"?>
<!-- Generator: Adobe Illustrator 19.0.0, SVG Export Plug-In . SVG Version: 6.00 Build 0)  -->
<svg version="1.1" id="Layer_1" xmlns:sketch="http://www.bohemiancoding.com/sketch/ns"
	 xmlns="http://www.w3.org/2000/svg" xmlns:xlink="http://www.w3.org/1999/xlink" x="0px" y="0px" viewBox="-175.8 368.2 39.3 42.1"
	 style="enable-background:new -175.8 368.2 39.3 42.1;" xml:space="preserve">
<style type="text/css">
	.st0{fill:#430098;}
</style>
<title>Heroku logo</title>
<desc>A platform as a service division of Salesforce.com</desc>
<g id="Page-1">
	<g id="main" transform="translate(-25.000000, -23.000000)">
		<g id="nav" transform="translate(25.000000, 23.000000)">
			<path id="logo" class="st0" d="M-141.7,369h-28.7c-2,0-3.6,1.6-3.6,3.6v32.8c0,2,1.6,3.6,3.6,3.6h28.7c2,0,3.6-1.6,3.6-3.6v-32.8
				C-138.1,370.6-139.7,369-141.7,369z M-140.1,405.4c0,0.9-0.7,1.6-1.6,1.6h-28.7c-0.9,0-1.6-0.7-1.6-1.6v-32.8
				c0-0.9,0.7-1.6,1.6-1.6h28.7c0.9,0,1.6,0.7,1.6,1.6V405.4z M-165,403l4.5-4l-4.5-4V403z M-148.8,386.8c-0.8-0.8-2.3-1.8-4.8-1.8
				c-2.7,0-5.5,0.7-7.5,1.4V375h-4v17.3l2.8-1.3c0,0,4.6-2.1,8.6-2.1c2,0,2.5,1.1,2.5,2.1v12h4v-12
				C-147.1,390.7-147.1,388.5-148.8,386.8z M-154.1,381.5h4c1.8-2.1,2.7-4.2,3-6.5h-4C-151.5,377.3-152.5,379.4-154.1,381.5z"/>
		</g>
	</g>
</g>
</svg>
