<?xml version="1.0" encoding="utf-8"?>
<!-- Generator: Adobe Illustrator 19.0.0, SVG Export Plug-In . SVG Version: 6.00 Build 0)  -->
<svg version="1.1" id="Layer_1" xmlns="http://www.w3.org/2000/svg" xmlns:xlink="http://www.w3.org/1999/xlink" x="0px" y="0px"
	 viewBox="224 -224 1024 1024" style="enable-background:new 224 -224 1024 1024;" xml:space="preserve">
<style type="text/css">
	.st0{fill:#F0F0F0;}
</style>
<path class="st0" d="M703-223.4c-2.2,0.2-9.2,0.9-15.5,1.4c-145.3,13.1-281.4,91.5-367.6,212c-48,67-78.7,143-90.3,223.5
	c-4.1,28.1-4.6,36.4-4.6,74.5s0.5,46.4,4.6,74.5c27.8,192.1,164.5,353.5,349.9,413.3c33.2,10.7,68.2,18,108,22.4
	c15.5,1.7,82.5,1.7,98,0c68.7-7.6,126.9-24.6,184.3-53.9c8.8-4.5,10.5-5.7,9.3-6.7c-0.8-0.6-38.3-50.9-83.3-111.7L814,515.3
	L711.5,363.6c-56.4-83.4-102.8-151.6-103.2-151.6c-0.4-0.1-0.8,67.3-1,149.6c-0.3,144.1-0.4,149.9-2.2,153.3
	c-2.6,4.9-4.6,6.9-8.8,9.1c-3.2,1.6-6,1.9-21.1,1.9h-17.3l-4.6-2.9c-3-1.9-5.2-4.4-6.7-7.3l-2.1-4.5l0.2-200.5l0.3-200.6l3.1-3.9
	c1.6-2.1,5-4.8,7.4-6.1c4.1-2,5.7-2.2,23-2.2c20.4,0,23.8,0.8,29.1,6.6c1.5,1.6,57,85.2,123.4,185.9s157.2,238.2,201.8,305.7
	l81,122.7l4.1-2.7c36.3-23.6,74.7-57.2,105.1-92.2c64.7-74.3,106.4-164.9,120.4-261.5c4.1-28.1,4.6-36.4,4.6-74.5
	s-0.5-46.4-4.6-74.5C1215.6,21.4,1078.9-140,893.5-199.8c-32.7-10.6-67.5-17.9-106.5-22.3C777.4-223.1,711.3-224.2,703-223.4
	L703-223.4z M912.4,86c4.8,2.4,8.7,7,10.1,11.8c0.8,2.6,1,58.2,0.8,183.5L923,461l-31.7-48.6l-31.8-48.6V233.2
	c0-84.5,0.4-132,1-134.3c1.6-5.6,5.1-10,9.9-12.6c4.1-2.1,5.6-2.3,21.3-2.3C906.5,84,909.1,84.2,912.4,86L912.4,86z"/>
<path d="M1008.8,721c-3.5,2.2-4.6,3.7-1.5,2c2.2-1.3,5.8-4,5.2-4.1C1012.2,718.9,1010.5,719.9,1008.8,721z M1001.9,725.5
	c-1.8,1.4-1.8,1.5,0.4,0.4c1.2-0.6,2.2-1.3,2.2-1.5C1004.5,723.6,1004,723.8,1001.9,725.5L1001.9,725.5z M996.9,728.5
	c-1.8,1.4-1.8,1.5,0.4,0.4c1.2-0.6,2.2-1.3,2.2-1.5C999.5,726.6,999,726.8,996.9,728.5L996.9,728.5z M991.9,731.5
	c-1.8,1.4-1.8,1.5,0.4,0.4c1.2-0.6,2.2-1.3,2.2-1.5C994.5,729.6,994,729.8,991.9,731.5L991.9,731.5z M984.3,735.5
	c-3.8,2-3.6,2.8,0.2,0.9c1.7-0.9,3-1.8,3-2C987.5,733.7,987.4,733.8,984.3,735.5z"/>
</svg>
