<?xml version="1.0" encoding="utf-8"?>
<!-- Generator: Adobe Illustrator 19.0.0, SVG Export Plug-In . SVG Version: 6.00 Build 0)  -->
<svg version="1.1"
	 id="Layer_1" xmlns:rdf="http://www.w3.org/1999/02/22-rdf-syntax-ns#" xmlns:dc="http://purl.org/dc/elements/1.1/" xmlns:cc="http://creativecommons.org/ns#"
	 xmlns="http://www.w3.org/2000/svg" xmlns:xlink="http://www.w3.org/1999/xlink" x="0px" y="0px" viewBox="-71 319.2 182.3 155.8"
	 style="enable-background:new -71 319.2 182.3 155.8;" xml:space="preserve">
<style type="text/css">
	.st0{fill:#A41E11;}
	.st1{fill:#D82C20;}
	.st2{fill:#FFFFFF;}
	.st3{fill:#7A0C00;}
	.st4{fill:#AD2115;}
</style>
<g transform="translate(-166.32586,-222.11295)">
	<path class="st0" d="M263.8,658.7c-9.1,4.7-56.1,24.1-66.1,29.3c-10,5.2-15.6,5.2-23.5,1.4c-7.9-3.8-58-24-67-28.3
		c-4.5-2.2-6.9-4-6.9-5.7v-17.2c0,0,65.2-14.2,75.7-18c10.5-3.8,14.2-3.9,23.1-0.6c9,3.3,62.5,12.9,71.3,16.2c0,0,0,15.4,0,17
		C270.4,654.5,268.4,656.3,263.8,658.7L263.8,658.7z"/>
	<path class="st1" d="M263.8,641.5c-9.1,4.7-56.1,24.1-66.1,29.3c-10,5.2-15.6,5.2-23.5,1.4c-7.9-3.8-58-24-67-28.3
		c-9-4.3-9.2-7.3-0.3-10.7c8.9-3.5,58.6-23,69.1-26.8c10.5-3.8,14.2-3.9,23.1-0.6c9,3.3,55.7,21.9,64.5,25.1
		C272.5,634.1,272.8,636.8,263.8,641.5L263.8,641.5z"/>
	<path class="st0" d="M263.8,630.7c-9.1,4.7-56.1,24.1-66.1,29.3c-10,5.2-15.6,5.2-23.5,1.4c-7.9-3.8-58-24-67-28.3
		c-4.5-2.2-6.9-4-6.9-5.7v-17.2c0,0,65.2-14.2,75.7-18c10.5-3.8,14.2-3.9,23.1-0.6c9,3.3,62.5,12.9,71.3,16.2c0,0,0,15.4,0,17
		C270.4,626.4,268.4,628.3,263.8,630.7z"/>
	<path class="st1" d="M263.8,613.5c-9.1,4.7-56.1,24.1-66.1,29.3c-10,5.2-15.6,5.2-23.5,1.4c-7.9-3.8-58-24-67-28.3
		c-9-4.3-9.2-7.3-0.3-10.7c8.9-3.5,58.6-23,69.1-26.8c10.5-3.8,14.2-3.9,23.1-0.6c9,3.3,55.7,21.9,64.5,25.1
		C272.5,606.1,272.8,608.8,263.8,613.5L263.8,613.5z"/>
	<path class="st0" d="M263.8,601.6c-9.1,4.7-56.1,24.1-66.1,29.3c-10,5.2-15.6,5.2-23.5,1.4c-7.9-3.8-58-24-67-28.3
		c-4.5-2.2-6.9-4-6.9-5.7v-17.2c0,0,65.2-14.2,75.7-18c10.5-3.8,14.2-3.9,23.1-0.6c9,3.3,62.5,12.9,71.3,16.2c0,0,0,15.4,0,17
		C270.4,597.3,268.4,599.2,263.8,601.6L263.8,601.6z"/>
	<path class="st1" d="M263.8,584.4c-9.1,4.7-56.1,24.1-66.1,29.3c-10,5.2-15.6,5.2-23.5,1.4c-7.9-3.8-58-24-67-28.3
		c-9-4.3-9.2-7.3-0.3-10.7c8.9-3.5,58.6-23,69.1-26.8c10.5-3.8,14.2-3.9,23.1-0.6c9,3.3,55.7,21.9,64.5,25.1
		C272.5,577,272.8,579.7,263.8,584.4L263.8,584.4z"/>
	<polygon class="st2" points="207.7,567.9 192.9,569.4 189.6,577.3 184.3,568.5 167.3,566.9 180,562.4 176.2,555.3 188.1,560 
		199.3,556.3 196.2,563.6 	"/>
	<polygon class="st2" points="188.8,606.4 161.2,595 200.7,588.9 	"/>
	<ellipse class="st2" cx="150.6" cy="580.4" rx="21.1" ry="8.2"/>
	<polygon class="st3" points="225.1,570 248.4,579.3 225.1,588.5 	"/>
	<polygon class="st4" points="199.3,580.2 225.1,570 225.1,588.5 222.6,589.5 	"/>
</g>
</svg>
